<svg id="Capa_1" enable-background="new 0 0 512 512" height="35" viewBox="0 0 512 512" width="35" xmlns="http://www.w3.org/2000/svg"><g><g><path d="m366.92 33.57-110.92 222.43-193.949-155.37c45.54-56.78 115.499-93.13 193.949-93.13 39.86 0 77.53 9.39 110.92 26.07z" fill="#9dc6fb"/><path d="m487.68 346.05c-35.48 91.22-123.28 156.31-226.55 158.39l5.4-196.26z" fill="#9dc6fb"/><path d="m504.5 256c0 31.76-5.96 62.13-16.82 90.05l-221.15-37.87-5.4 196.26c-1.7.04-3.41.06-5.13.06-137.24 0-248.5-111.26-248.5-248.5 0-58.79 20.42-112.81 54.55-155.37l193.95 155.37 110.92-222.43c81.57 40.75 137.58 125.05 137.58 222.43z" fill="#95d6a4"/><g fill="#f6e266"><path d="m74.58 86.18 110.73 103.65-23.17 91.8-145.92 39.84c-5.69-20.86-8.72-42.81-8.72-65.47 0-65.67 25.48-125.38 67.08-169.82z"/><path d="m266.529 308.18 38.62 191.449c-15.89 3.2-32.32 4.87-49.15 4.87-13.19 0-26.15-1.03-38.78-3.01l23.42-148.24z"/><path d="m411.24 61.95-99.31 124.13-26.91-17.94 48.93-148.16c28.369 9.36 54.469 23.69 77.29 41.97z"/></g><path d="m504.499 256c0 65.67-25.48 125.38-67.08 169.82l-111.5-104.37 19.09-89.75 150.77-41.17c5.69 20.86 8.72 42.81 8.72 65.47z" fill="#dd636e"/><circle cx="255.999" cy="256" fill="#d3effb" r="128.565"/><path d="m278.463 382.702c-7.119 1.234-14.446 1.867-21.914 1.867-71.005 0-128.569-57.564-128.569-128.569s57.564-128.569 128.569-128.569c7.468 0 14.795.633 21.914 1.867-60.556 10.395-106.644 63.166-106.644 126.702s46.088 116.307 106.644 126.702z" fill="#9dc6fb"/><path d="m255.999 272.378h-59.731c-9.045 0-16.378-7.333-16.378-16.378s7.333-16.378 16.378-16.378h59.731c9.045 0 16.378 7.333 16.378 16.378s-7.333 16.378-16.378 16.378z" fill="#365e7d"/><path d="m255.999 272.378c-9.045 0-16.378-7.333-16.378-16.378v-41.82c0-9.045 7.333-16.378 16.378-16.378s16.378 7.333 16.378 16.378v41.82c0 9.045-7.333 16.378-16.378 16.378z" fill="#2b4d66"/></g><g><path d="m255.999 190.301c-13.167 0-23.879 10.712-23.879 23.878v17.942h-35.857c-13.166 0-23.878 10.712-23.878 23.878s10.712 23.878 23.878 23.878h59.736c13.166 0 23.878-10.712 23.878-23.878v-41.82c0-13.166-10.712-23.878-23.878-23.878zm-68.614 65.699c0-4.896 3.982-8.878 8.878-8.878h35.857v8.878c0 3.137.614 6.132 1.719 8.878h-37.576c-4.896 0-8.878-3.982-8.878-8.878zm77.492 0c0 4.896-3.982 8.878-8.878 8.878s-8.879-3.983-8.879-8.878v-41.82c0-4.896 3.983-8.878 8.879-8.878s8.878 3.983 8.878 8.878z"/><path d="m437.019 74.981c-48.353-48.352-112.64-74.981-181.019-74.981s-132.666 26.629-181.019 74.981c-48.352 48.353-74.981 112.64-74.981 181.019s26.629 132.666 74.981 181.019c48.353 48.352 112.64 74.981 181.019 74.981 41.765 0 83.213-10.284 119.863-29.739 35.481-18.835 66.475-46.189 89.631-79.105 2.384-3.388 1.569-8.066-1.818-10.45-3.389-2.382-8.066-1.568-10.449 1.819-5.068 7.204-10.514 14.062-16.269 20.597l-76.7-71.798c19.839-23.648 31.806-54.112 31.806-87.323 0-9.791-1.049-19.34-3.023-28.55l101.384-27.681c4.331 18.205 6.575 37.044 6.575 56.23 0 39.686-9.854 79.032-28.499 113.785-1.958 3.65-.586 8.196 3.063 10.154 3.653 1.959 8.197.587 10.155-3.063 19.81-36.926 30.281-78.724 30.281-120.876 0-68.379-26.629-132.666-74.981-181.019zm-90.269 128.624c1.39 2.406 3.91 3.751 6.502 3.751 1.272 0 2.562-.324 3.743-1.006l7.38-4.261c7.058 14.13 11.43 29.823 12.449 46.411h-19.454c-4.143 0-7.5 3.358-7.5 7.5s3.357 7.5 7.5 7.5h19.454c-1.019 16.587-5.392 32.28-12.449 46.411l-7.38-4.261c-3.589-2.072-8.175-.843-10.245 2.745-2.071 3.587-.842 8.174 2.745 10.245l7.36 4.249c-8.951 13.451-20.516 25.017-33.967 33.967l-4.249-7.36c-2.07-3.588-6.66-4.817-10.245-2.745-3.587 2.071-4.816 6.658-2.745 10.245l4.261 7.38c-14.13 7.058-29.823 11.43-46.41 12.449v-19.455c0-4.142-3.357-7.5-7.5-7.5s-7.5 3.358-7.5 7.5v19.455c-16.588-1.019-32.281-5.392-46.411-12.449l4.261-7.38c2.071-3.587.842-8.174-2.745-10.245-3.59-2.072-8.175-.842-10.245 2.745l-4.249 7.36c-13.451-8.951-25.016-20.516-33.967-33.967l7.361-4.25c3.587-2.071 4.816-6.658 2.745-10.245-2.07-3.587-6.656-4.817-10.245-2.745l-7.381 4.261c-7.058-14.131-11.43-29.824-12.449-46.411h19.455c4.143 0 7.5-3.358 7.5-7.5s-3.357-7.5-7.5-7.5h-19.455c1.019-16.587 5.392-32.28 12.449-46.411l7.381 4.261c1.182.682 2.471 1.006 3.743 1.006 2.592 0 5.113-1.346 6.502-3.751 2.071-3.587.842-8.174-2.745-10.245l-7.361-4.25c8.95-13.451 20.516-25.016 33.967-33.967l4.249 7.36c1.389 2.406 3.91 3.751 6.502 3.751 1.272 0 2.562-.324 3.743-1.006 3.587-2.071 4.816-6.658 2.745-10.245l-4.261-7.38c14.131-7.058 29.824-11.43 46.411-12.449v19.455c0 4.142 3.357 7.5 7.5 7.5s7.5-3.358 7.5-7.5v-19.455c16.587 1.019 32.28 5.392 46.41 12.449l-4.261 7.38c-2.071 3.587-.842 8.174 2.745 10.245 1.182.682 2.471 1.006 3.743 1.006 2.592 0 5.113-1.346 6.502-3.751l4.249-7.36c13.451 8.951 25.016 20.516 33.967 33.967l-7.36 4.249c-3.587 2.073-4.816 6.66-2.745 10.247zm-41.021-74.259 32.973-99.833c22.091 8.052 42.932 19.36 61.936 33.678l-65.658 82.075c-9-6.437-18.811-11.807-29.251-15.92zm-230.709-32.48 9.804 9.179c1.447 1.354 3.287 2.025 5.124 2.025 2.003 0 4.001-.797 5.477-2.374 2.831-3.024 2.675-7.77-.349-10.601l-9.806-9.181c.107-.107.21-.218.318-.326 45.519-45.519 106.04-70.588 170.412-70.588 23.514 0 46.51 3.36 68.453 9.825l-32.967 99.814c-11.319-3.061-23.214-4.704-35.487-4.704-36.431 0-69.562 14.394-94.01 37.791l-45.024-42.142c-3.024-2.832-7.771-2.673-10.601.351-2.831 3.024-2.674 7.77.351 10.601l45.024 42.142c-19.839 23.648-31.805 54.112-31.805 87.322 0 9.791 1.049 19.34 3.023 28.55l-101.381 27.681c-4.332-18.207-6.576-37.045-6.576-56.231 0-59.195 21.213-115.123 60.02-159.134zm-49.528 229.845 101.416-27.69c15.094 45.175 53.282 79.868 100.483 90.008l-16.395 103.784c-47.231-8.874-90.686-31.68-125.409-66.402-28.32-28.321-48.719-62.451-60.095-99.7zm200.324 168.425 16.392-103.766c4.536.458 9.136.695 13.791.695 6.625 0 13.139-.485 19.514-1.405l20.76 102.913c-13.203 2.245-26.665 3.427-40.273 3.427-10.173 0-20.248-.63-30.184-1.864zm85.159-4.536-20.757-102.896c22.788-5.924 43.271-17.621 59.79-33.43l76.692 71.791c-31.855 31.927-72.019 54.264-115.725 64.535zm74.114-277.621c-7.577-22.677-20.974-42.711-38.409-58.328l65.655-82.07c4.832 4.132 9.532 8.463 14.077 13.007 28.321 28.321 48.72 62.451 60.095 99.7z"/></g></g></svg>
