<?xml version="1.0"?>
<svg xmlns="http://www.w3.org/2000/svg" id="Capa_1" enable-background="new 0 0 512 512" height="35px" viewBox="0 0 512 512" width="35px"><g><path d="m126.086 459.022c-69.558-44.605-111.086-120.501-111.086-203.022 0-133.918 108.813-241 241-241 84.651 0 164.115 45.272 207.382 118.149 2.115 3.562 6.716 4.734 10.278 2.621 3.562-2.115 4.735-6.716 2.621-10.278-44.849-75.541-127.106-125.492-220.281-125.492-140.359 0-256 113.71-256 256 0 87.655 44.108 168.271 117.989 215.649 3.492 2.238 8.129 1.218 10.362-2.265 2.236-3.486 1.223-8.126-2.265-10.362z" fill="#FFFFFF"/><path d="m492.43 157.663c-1.593-3.824-5.984-5.633-9.807-4.041-3.824 1.592-5.633 5.983-4.041 9.807 12.221 29.35 18.418 60.495 18.418 92.571 0 132.888-108.112 241-241 241-34.938 0-68.631-7.309-100.143-21.725-3.767-1.722-8.216-.066-9.94 3.7-1.723 3.767-.066 8.217 3.7 9.94 33.484 15.318 69.277 23.085 106.383 23.085 141.491 0 256-114.497 256-256 0-34.065-6.584-67.15-19.57-98.337z" fill="#FFFFFF"/><path d="m256 52.325c-112.307 0-203.675 91.368-203.675 203.675s91.368 203.675 203.675 203.675 203.675-91.368 203.675-203.675-91.368-203.675-203.675-203.675zm0 392.35c-104.036 0-188.675-84.639-188.675-188.675s84.639-188.675 188.675-188.675 188.675 84.639 188.675 188.675-84.639 188.675-188.675 188.675z" fill="#FFFFFF"/><path d="m256 113.47c4.142 0 7.5-3.358 7.5-7.5v-17.1c0-4.142-3.358-7.5-7.5-7.5s-7.5 3.358-7.5 7.5v17.1c0 4.142 3.358 7.5 7.5 7.5z" fill="#FFFFFF"/><path d="m256 398.53c-4.142 0-7.5 3.358-7.5 7.5v17.1c0 4.142 3.358 7.5 7.5 7.5s7.5-3.358 7.5-7.5v-17.1c0-4.142-3.358-7.5-7.5-7.5z" fill="#FFFFFF"/><path d="m330.938 248.5h-43.181c-2.901-11.82-12.437-21.357-24.257-24.257v-74.643c0-4.142-3.358-7.5-7.5-7.5s-7.5 3.358-7.5 7.5v74.643c-14.238 3.494-25.175 16.617-25.175 31.757 0 6.206 1.842 12.071 4.991 17.077l-63.786 63.786c-2.929 2.929-2.929 7.678 0 10.606 2.929 2.929 7.678 2.929 10.606 0l63.786-63.786c5.006 3.149 10.871 4.991 17.077 4.991 15.14 0 28.263-10.937 31.757-25.175h43.181c4.142 0 7.5-3.358 7.5-7.5s-3.357-7.499-7.499-7.499zm-74.938 25.175c-9.581 0-17.675-8.094-17.675-17.675s8.094-17.675 17.675-17.675 17.675 8.094 17.675 17.675-8.094 17.675-17.675 17.675z" fill="#FFFFFF"/><path d="m406.03 263.5h17.1c4.142 0 7.5-3.358 7.5-7.5s-3.358-7.5-7.5-7.5h-17.1c-4.142 0-7.5 3.358-7.5 7.5s3.358 7.5 7.5 7.5z" fill="#FFFFFF"/><path d="m105.97 248.5h-17.1c-4.142 0-7.5 3.358-7.5 7.5s3.358 7.5 7.5 7.5h17.1c4.142 0 7.5-3.358 7.5-7.5s-3.358-7.5-7.5-7.5z" fill="#FFFFFF"/><path d="m367.391 356.784c-2.929-2.929-7.678-2.929-10.606 0-2.929 2.929-2.929 7.678 0 10.606l12.091 12.091c2.929 2.929 7.678 2.929 10.606 0 2.929-2.929 2.929-7.678 0-10.606z" fill="#FFFFFF"/><path d="m143.125 132.518c-2.929-2.929-7.678-2.929-10.606 0-2.929 2.929-2.929 7.678 0 10.606l12.091 12.091c2.929 2.929 7.678 2.929 10.606 0 2.929-2.929 2.929-7.678 0-10.606z" fill="#FFFFFF"/><path d="m144.609 356.784-12.091 12.091c-2.929 2.929-2.929 7.678 0 10.606 2.929 2.929 7.678 2.929 10.606 0l12.091-12.091c2.929-2.929 2.929-7.678 0-10.606-2.928-2.929-7.677-2.929-10.606 0z" fill="#FFFFFF"/><path d="m368.875 132.518-12.091 12.091c-2.929 2.929-2.929 7.678 0 10.606 2.929 2.929 7.678 2.929 10.606 0l12.091-12.091c2.929-2.929 2.929-7.678 0-10.606-2.928-2.929-7.677-2.929-10.606 0z" fill="#FFFFFF"/></g></svg>
