<svg id="Capa_1" enable-background="new 0 0 511.999 511.999" height="35" viewBox="0 0 511.999 511.999" width="35" xmlns="http://www.w3.org/2000/svg"><g><g><path d="m382.561 110.415h35.599v56.137h-35.599z" fill="#ffd064" transform="matrix(.754 .657 -.657 .754 189.326 -228.846)"/><path d="m439.48 155.519c-20.939-17.262-41.399-35.074-61.381-53.436-8.109-7.452-9.009-20.034-1.805-28.363.087-.1.174-.2.261-.3 7.257-8.283 19.844-9.124 28.341-2.119 20.939 17.262 41.399 35.074 61.381 53.436 8.109 7.452 9.009 20.034 1.805 28.363-.087.1-.174.2-.261.3-7.258 8.283-19.844 9.125-28.341 2.119z" fill="#f6e266"/><path d="m405.113 126.319c-9.101-7.969-18.1-16.045-27.017-24.235-8.107-7.457-9.007-20.035-1.804-28.363l.262-.301c7.256-8.282 19.843-9.128 28.341-2.12 9.341 7.704 18.578 15.505 27.725 23.422-8.695-5.629-20.399-4.293-27.38 3.662l-.271.312c-6.913 8.004-6.629 19.786.144 27.623z" fill="#ffd064"/><path d="m93.84 110.415h35.599v56.137h-35.599z" fill="#ffd064" transform="matrix(-.754 .657 -.657 -.754 286.77 169.628)"/><path d="m72.52 155.519c20.939-17.262 41.399-35.074 61.381-53.436 8.109-7.452 9.009-20.034 1.805-28.363-.087-.1-.174-.2-.261-.3-7.258-8.283-19.844-9.124-28.341-2.119-20.939 17.262-41.399 35.074-61.381 53.436-8.109 7.452-9.009 20.034-1.805 28.363l.261.3c7.257 8.283 19.843 9.124 28.341 2.119z" fill="#f6e266"/><path d="m72.737 100.501c-9.101 7.969-18.1 16.045-27.017 24.235-8.107 7.457-9.007 20.035-1.804 28.363l.262.301c7.256 8.282 19.843 9.128 28.341 2.12 9.341-7.704 18.578-15.505 27.725-23.422-8.695 5.629-20.399 4.293-27.38-3.662l-.271-.312c-6.913-8.004-6.629-19.786.144-27.623z" fill="#ffd064"/><g><path d="m219.193 44.948h73.613v80.463h-73.613z" fill="#ffd064"/><path d="m314.323 66.779c-38.882 1.045-77.765 1.045-116.648 0-15.779-.424-28.594-13.179-28.645-28.964-.001-.19-.001-.38 0-.569.05-15.785 12.865-28.54 28.645-28.964 38.883-1.045 77.765-1.045 116.648 0 15.779.424 28.594 13.179 28.645 28.964.001.19.001.38 0 .569-.05 15.786-12.865 28.54-28.645 28.964z" fill="#f6e266"/><path d="m249.69 67.556c-17.339-.05-34.667-.311-52.016-.773-15.782-.432-28.593-13.183-28.643-28.965v-.573c.05-15.782 12.861-28.543 28.643-28.965 17.349-.462 34.677-.723 52.016-.773-14.698 2.098-26.093 14.558-26.153 29.728v.592c.06 15.161 11.455 27.631 26.153 29.729z" fill="#ffd064"/></g><circle cx="256" cy="301.455" fill="#f6e266" r="203.044"/><path d="m268.555 504.115c-4.15.25-8.34.38-12.55.38-112.14 0-203.05-90.91-203.05-203.04 0-112.14 90.91-203.05 203.05-203.05 4.21 0 8.4.13 12.55.38-106.29 6.48-190.49 94.74-190.49 202.67 0 107.92 84.2 196.18 190.49 202.66z" fill="#ffd064"/><circle cx="256" cy="301.455" fill="#d3effb" r="156.409"/><path d="m270.811 457.155c-4.88.47-9.82.7-14.81.7-86.38 0-156.41-70.02-156.41-156.4 0-86.39 70.03-156.41 156.41-156.41 4.99 0 9.93.23 14.81.7-79.44 7.45-141.61 74.31-141.61 155.71 0 81.39 62.17 148.25 141.61 155.7z" fill="#9dc6fb"/><path d="m256.467 316.457c-2.576 0-5.186-.644-7.589-1.999-7.448-4.199-10.081-13.641-5.881-21.089l54.732-97.071c4.2-7.448 13.643-10.08 21.089-5.882 7.448 4.199 10.081 13.641 5.882 21.089l-54.732 97.071c-2.846 5.045-8.096 7.881-13.501 7.881z" fill="#365e7d"/><circle cx="256" cy="301.455" fill="#f6e266" r="35.169"/><path d="m266.091 335.145c-3.2.96-6.58 1.47-10.09 1.47-19.42 0-35.17-15.74-35.17-35.16 0-19.43 15.75-35.17 35.17-35.17 3.51 0 6.89.51 10.09 1.47-14.51 4.33-25.09 17.77-25.09 33.7 0 15.92 10.58 29.36 25.09 33.69z" fill="#ffd064"/><g><g fill="#698ed5"><circle cx="256" cy="181.307" r="14.538"/><circle cx="256" cy="421.602" r="14.538"/></g></g><g><g fill="#698ed5"><circle cx="376.147" cy="301.455" r="14.538"/><circle cx="135.852" cy="301.455" r="14.538"/></g></g></g><g><path d="m471.352 119.215c-19.984-18.365-40.738-36.432-61.685-53.701-11.773-9.705-28.795-8.403-38.744 2.953l-.302.346c-9.886 11.429-8.831 28.469 2.402 38.792 3.819 3.51 7.674 7.004 11.546 10.488l-8.902 10.235c-22.371-15.512-47.875-26.802-75.358-32.713v-21.004c4.743-.097 9.481-.208 14.209-.335 20.096-.535 35.887-16.538 35.951-36.457v-.594c-.063-19.888-15.853-35.896-35.951-36.443-26.857-.714-53.911-.941-80.405-.672-4.142.042-7.466 3.433-7.424 7.575.042 4.141 3.391 7.474 7.575 7.424 26.314-.266 53.18-.041 79.85.668 11.738.32 21.318 9.963 21.354 21.473v.546c-.037 11.535-9.614 21.174-21.353 21.487-38.563 1.042-77.671 1.042-116.237 0-11.736-.312-21.313-9.951-21.35-21.463v-.546c.037-11.533 9.616-21.177 21.357-21.497 2.168-.06 4.326-.109 6.495-.159 4.141-.095 7.421-3.528 7.327-7.669s-3.535-7.402-7.669-7.327c-2.192.05-4.374.1-6.562.161-20.093.548-35.883 16.555-35.946 36.467v.594c.063 19.895 15.855 35.899 35.948 36.433 4.73.128 9.469.239 14.212.335v21.004c-27.483 5.911-52.987 17.201-75.358 32.713l-8.901-10.234c3.872-3.485 7.727-6.979 11.546-10.489 11.233-10.323 12.289-27.363 2.407-38.787l-.296-.341c-9.959-11.366-26.981-12.668-38.753-2.963-20.944 17.266-41.698 35.334-61.685 53.701-11.233 10.323-12.289 27.363-2.407 38.787l.296.341c5.483 6.258 13.104 9.464 20.814 9.464 6.294 0 12.648-2.139 17.939-6.501 4.001-3.299 7.992-6.635 11.976-9.989l9.225 10.593c-32.974 37.179-53.032 86.062-53.032 139.549 0 116.092 94.448 210.54 210.54 210.54 41.593 0 81.812-12.111 116.31-35.022 3.451-2.292 4.39-6.947 2.098-10.397-2.291-3.451-6.946-4.39-10.397-2.098-32.03 21.273-69.379 32.518-108.011 32.518-107.821 0-195.54-87.719-195.54-195.54 0-107.827 87.719-195.55 195.54-195.55s195.54 87.723 195.54 195.55c0 55.301-23.583 108.267-64.701 145.318-3.077 2.773-3.324 7.515-.551 10.592s7.515 3.324 10.592.551c44.27-39.891 69.66-96.919 69.66-156.462 0-53.485-20.056-102.366-53.028-139.545l9.223-10.596c3.983 3.353 7.974 6.689 11.975 9.988 5.291 4.362 11.64 6.501 17.936 6.5 7.711-.001 15.339-3.211 20.828-9.475l.282-.324c9.883-11.43 8.828-28.47-2.405-38.793zm-403.603 30.517c-5.383 4.438-13.427 3.866-17.933-1.278l-.226-.26c-4.471-5.169-3.929-13.214 1.207-17.934 19.79-18.186 40.339-36.076 61.077-53.172 2.432-2.005 5.407-2.988 8.354-2.988 3.575 0 7.108 1.446 9.579 4.266l.226.26c4.471 5.169 3.929 13.214-1.207 17.934-19.788 18.185-40.337 36.074-61.077 53.172zm41.132 1.268-8.181-9.394c5.208-4.472 10.389-8.983 15.536-13.525l8.047 9.251c-5.355 4.307-10.495 8.868-15.402 13.668zm117.808-58.041v-18.093c9.758.131 19.534.197 29.311.197 9.775 0 19.55-.066 29.309-.197v18.093c-9.582-1.341-19.364-2.05-29.31-2.05s-19.727.709-29.31 2.05zm176.432 58.045c-4.908-4.801-10.049-9.364-15.405-13.671l8.047-9.252c5.147 4.542 10.329 9.053 15.537 13.526zm59.298-2.82-.239.274c-4.503 5.14-12.547 5.712-17.929 1.274-20.74-17.098-41.289-34.987-61.077-53.172-5.136-4.72-5.678-12.765-1.197-17.946l.219-.252c2.468-2.817 6-4.262 9.574-4.262 2.947 0 5.923.982 8.355 2.988 20.741 17.099 41.29 34.988 61.077 53.172 5.137 4.72 5.678 12.766 1.217 17.924z"/><path d="m315.527 387.358c-2.071-3.588-6.657-4.816-10.245-2.745-3.587 2.071-4.816 6.658-2.745 10.245l9.375 16.239c1.389 2.406 3.91 3.751 6.502 3.751 1.272 0 2.562-.324 3.743-1.006 3.587-2.071 4.816-6.658 2.745-10.245z"/><path d="m200.087 187.411c-2.071-3.588-6.657-4.816-10.245-2.745-3.587 2.071-4.816 6.658-2.745 10.245l9.375 16.239c1.389 2.406 3.91 3.751 6.502 3.751 1.272 0 2.562-.324 3.743-1.006 3.587-2.071 4.816-6.658 2.745-10.245z"/><path d="m367.842 355.166-16.239-9.375c-3.588-2.072-8.175-.842-10.245 2.745-2.071 3.587-.842 8.174 2.745 10.245l16.239 9.375c1.181.682 2.471 1.006 3.743 1.006 2.592 0 5.113-1.345 6.502-3.751 2.072-3.587.842-8.174-2.745-10.245z"/><path d="m167.895 239.726-16.239-9.375c-3.587-2.072-8.174-.842-10.245 2.745s-.842 8.174 2.745 10.245l16.239 9.375c1.181.682 2.471 1.006 3.743 1.006 2.592 0 5.113-1.345 6.502-3.751 2.072-3.587.842-8.174-2.745-10.245z"/><path d="m347.86 253.723c1.272 0 2.562-.324 3.743-1.006l16.239-9.375c3.587-2.071 4.816-6.658 2.745-10.245s-6.658-4.816-10.245-2.745l-16.239 9.375c-3.587 2.071-4.816 6.658-2.745 10.245 1.389 2.406 3.91 3.751 6.502 3.751z"/><path d="m160.395 345.791-16.239 9.375c-3.587 2.071-4.816 6.658-2.745 10.245 1.389 2.406 3.91 3.751 6.502 3.751 1.272 0 2.562-.324 3.743-1.006l16.239-9.375c3.587-2.071 4.816-6.658 2.745-10.245-2.071-3.588-6.658-4.816-10.245-2.745z"/><path d="m206.717 384.613c-3.588-2.072-8.175-.843-10.245 2.745l-9.375 16.239c-2.071 3.587-.842 8.174 2.745 10.245 1.181.682 2.471 1.006 3.743 1.006 2.592 0 5.113-1.345 6.502-3.751l9.375-16.239c2.071-3.587.842-8.174-2.745-10.245z"/><path d="m256 137.546c-90.379 0-163.909 73.529-163.909 163.909s73.529 163.908 163.909 163.908 163.909-73.529 163.909-163.909-73.53-163.908-163.909-163.908zm0 312.817c-82.108 0-148.909-66.8-148.909-148.909s66.8-148.908 148.909-148.908 148.909 66.8 148.909 148.909-66.801 148.908-148.909 148.908z"/><path d="m322.502 183.885c-11.04-6.224-25.083-2.308-31.306 8.73l-37.337 66.224c-22.537 1.119-40.528 19.805-40.528 42.615 0 23.528 19.141 42.669 42.669 42.669s42.669-19.141 42.669-42.669c0-7.153-1.778-13.895-4.901-19.822l37.465-66.441c6.223-11.039 2.307-25.083-8.731-31.306zm-66.502 145.239c-15.257 0-27.669-12.412-27.669-27.669s12.412-27.669 27.669-27.669 27.669 12.412 27.669 27.669-12.412 27.669-27.669 27.669zm62.167-121.299-34.501 61.184c-4.041-3.451-8.729-6.158-13.857-7.918l34.454-61.11c2.162-3.833 7.039-5.192 10.874-3.03 3.831 2.162 5.191 7.04 3.03 10.874z"/><path d="m256 203.345c12.152 0 22.038-9.886 22.038-22.038s-9.886-22.038-22.038-22.038-22.038 9.886-22.038 22.038c0 12.151 9.886 22.038 22.038 22.038zm0-29.076c3.881 0 7.038 3.157 7.038 7.038s-3.157 7.038-7.038 7.038-7.038-3.157-7.038-7.038 3.157-7.038 7.038-7.038z"/><path d="m256 399.564c-12.152 0-22.038 9.886-22.038 22.038s9.886 22.038 22.038 22.038 22.038-9.886 22.038-22.038-9.886-22.038-22.038-22.038zm0 29.076c-3.881 0-7.038-3.157-7.038-7.038s3.157-7.038 7.038-7.038 7.038 3.157 7.038 7.038-3.157 7.038-7.038 7.038z"/><path d="m376.148 279.417c-12.152 0-22.038 9.886-22.038 22.038s9.886 22.038 22.038 22.038c12.151 0 22.038-9.886 22.038-22.038s-9.887-22.038-22.038-22.038zm0 29.076c-3.881 0-7.038-3.157-7.038-7.038s3.157-7.038 7.038-7.038c3.88 0 7.038 3.157 7.038 7.038s-3.158 7.038-7.038 7.038z"/><path d="m157.89 301.455c0-12.152-9.886-22.038-22.038-22.038s-22.038 9.886-22.038 22.038 9.886 22.038 22.038 22.038 22.038-9.887 22.038-22.038zm-22.038 7.038c-3.881 0-7.038-3.157-7.038-7.038s3.157-7.038 7.038-7.038 7.038 3.157 7.038 7.038-3.157 7.038-7.038 7.038z"/></g></g></svg>
